<svg xmlns="http://www.w3.org/2000/svg" width="40" height="40" viewBox="0 0 40 40">
  <defs>
    <linearGradient id="base" x1="4" y1="3" x2="36" y2="38" gradientUnits="userSpaceOnUse">
      <stop stop-color="#151A36"/>
      <stop offset="1" stop-color="#080B18"/>
    </linearGradient>
    <linearGradient id="folder" x1="6" y1="13" x2="34" y2="33" gradientUnits="userSpaceOnUse">
      <stop stop-color="#6366F1"/>
      <stop offset="1" stop-color="#4F46E5"/>
    </linearGradient>
    <linearGradient id="note" x1="24" y1="23" x2="36" y2="35" gradientUnits="userSpaceOnUse">
      <stop stop-color="#67E8F9"/>
      <stop offset="1" stop-color="#22D3EE"/>
    </linearGradient>
  </defs>
  <rect x="2" y="2" width="36" height="36" rx="9" fill="url(#base)"/>
  <path d="M8 10a3 3 0 0 1 3-3h7l3 3h10a3 3 0 0 1 3 3v15H8Z" fill="#7C3AED"/>
  <path d="M11 7.5h7l3 3h10a2.5 2.5 0 0 1 2.5 2.5" fill="none" stroke="#A78BFA" stroke-width=".7" stroke-linecap="round" opacity=".75"/>
  <path d="M8 13h8l3 3h13a3 3 0 0 1 3 3v11a3 3 0 0 1-3 3H8a3 3 0 0 1-3-3V16a3 3 0 0 1 3-3Z" fill="url(#folder)"/>
  <path d="M8 13.5h8l3 3h13a2.5 2.5 0 0 1 2.5 2.5" fill="none" stroke="#A5B4FC" stroke-width=".7" stroke-linecap="round" opacity=".7"/>
  <path d="m15.5 18.5-4 4.5 4 4.5m6-9 4 4.5-4 4.5" fill="none" stroke="#1E1B4B" stroke-width="4" stroke-linecap="round" stroke-linejoin="round" opacity=".65"/>
  <path d="m15.5 18.5-4 4.5 4 4.5m6-9 4 4.5-4 4.5" fill="none" stroke="#FFFFFF" stroke-width="2.6" stroke-linecap="round" stroke-linejoin="round"/>
  <path d="M27 22h6a4 4 0 0 1 4 4v6l-5 5h-5a4 4 0 0 1-4-4v-7a4 4 0 0 1 4-4Z" fill="url(#note)"/>
  <path d="M27 22.5h6a3.5 3.5 0 0 1 3.5 3.5" fill="none" stroke="#A5F3FC" stroke-width=".7" stroke-linecap="round" opacity=".8"/>
  <path d="M32 37v-3a2 2 0 0 1 2-2h3Z" fill="#0891B2"/>
  <path d="M28 27h6m-6 3h6m-6 3h4" fill="none" stroke="#0E7490" stroke-width="1.4" stroke-linecap="round"/>
</svg>
